# xmcd
#
# Track frame offsets:
#	150
#	16139
#	34020
#	53893
#	69790
#	85654
#	105108
#	115887
#	130626
#	142854
#	158969
#
# Disc length: 2308 seconds
#
# Revision: 0
# Processed by: cddbd v1.5.2PL0 Copyright (c) Steve Scherf et al.
# Submitted via: dBpowerAMP V4.0
#
DISCID=7709020b
DTITLE=Brian McComas - Back Up Again
DYEAR=2006
DGENRE=Country
TTITLE0=Back Up Again
TTITLE1=I'll Believe It When I See It
TTITLE2=Off My Mind
TTITLE3=Good, Good Lovin'
TTITLE4=Let Love Lead The Way
TTITLE5=All Comes Floodin' - Down
TTITLE6=It'll Be Alright
TTITLE7=That Won't Ever Change
TTITLE8=Wake Up Little Susie
TTITLE9=Too Far Gone
TTITLE10=Addicted To You
EXTD=
EXTT0=
EXTT1=
EXTT2=
EXTT3=
EXTT4=
EXTT5=
EXTT6=
EXTT7=
EXTT8=
EXTT9=
EXTT10=
PLAYORDER=
